<svg width="36" height="36" viewBox="0 0 36 36" fill="none" xmlns="http://www.w3.org/2000/svg">
<path d="M5.81154 2.62041C4.93287 1.74173 3.50824 1.74173 2.62956 2.62041C1.75089 3.49909 1.75089 4.92371 2.62957 5.80239L11.9987 15.1716C13.5608 16.7337 13.5608 19.2663 11.9987 20.8284L2.62957 30.1976C1.75089 31.0763 1.75089 32.5009 2.62957 33.3796C3.50824 34.2582 4.93286 34.2582 5.81154 33.3796L15.1807 24.0104C16.7428 22.4483 19.2755 22.4483 20.8376 24.0104L30.2067 33.3796C31.0854 34.2582 32.51 34.2582 33.3887 33.3796C34.2674 32.5009 34.2674 31.0763 33.3887 30.1976L24.0195 20.8284C22.4574 19.2663 22.4574 16.7337 24.0195 15.1716L33.3887 5.80239C34.2674 4.92371 34.2674 3.49909 33.3887 2.62041C32.51 1.74173 31.0854 1.74173 30.2067 2.62041L20.8376 11.9896C19.2755 13.5517 16.7428 13.5517 15.1807 11.9896L5.81154 2.62041Z" fill="#4C505B"/>
</svg>
