<svg width="27" height="26" viewBox="0 0 27 26" fill="none" xmlns="http://www.w3.org/2000/svg">
<path fill-rule="evenodd" clip-rule="evenodd" d="M16.3916 0.685547C15.3404 0.228516 14.2129 0 13.009 0C11.8052 0 10.6777 0.228516 9.62642 0.685547C8.57519 1.14258 7.65112 1.76888 6.85422 2.56445C6.07427 3.3431 5.4554 4.25716 4.9976 5.30664C4.55676 6.35612 4.33634 7.48177 4.33634 8.68359C4.33634 9.5638 4.46351 10.4102 4.71784 11.2227C4.97217 12.0352 5.32823 12.7799 5.78603 13.457L13.009 26L20.3846 13.2539C20.7915 12.5938 21.1052 11.8743 21.3256 11.0957C21.563 10.3171 21.6817 9.51302 21.6817 8.68359C21.6817 7.48177 21.4613 6.35612 21.0204 5.30664C20.5627 4.25716 19.9353 3.3431 19.1384 2.56445C18.3584 1.76888 17.4429 1.14258 16.3916 0.685547ZM13.009 13.0085C15.4063 13.0085 17.3496 11.0684 17.3496 8.67513C17.3496 6.2819 15.4063 4.3418 13.009 4.3418C10.6118 4.3418 8.66844 6.2819 8.66844 8.67513C8.66844 11.0684 10.6118 13.0085 13.009 13.0085Z" fill="#F2F2F2"/>
</svg>
