<svg width="27" height="26" viewBox="0 0 27 26" fill="none" xmlns="http://www.w3.org/2000/svg">
<path d="M18.6254 26C17.9649 26 17.1689 25.763 16.2374 25.2891C15.3228 24.7982 14.3321 24.1634 13.2651 23.3848C12.1981 22.5892 11.0973 21.6921 9.96254 20.6934C8.84475 19.6947 7.7439 18.679 6.65999 17.6465C5.59301 16.6309 4.65305 15.5391 3.84011 14.3711C3.02717 13.2201 2.34126 12.0859 1.78236 10.9688C1.24041 9.85156 0.817002 8.79362 0.51215 7.79492C0.224235 6.81315 0.0548732 5.98372 0.00406468 5.30664C-0.0298077 4.69727 0.148022 4.09635 0.537555 3.50391C0.910151 2.89453 1.39283 2.35286 1.9856 1.87891C2.5953 1.38802 3.25581 0.973307 3.96713 0.634766C4.67845 0.296224 5.3559 0.0846354 5.99947 0L9.58148 7.26172L7.77777 9.34375C7.96407 9.64844 8.47216 10.3086 9.30203 11.3242C10.1319 12.3398 10.9618 13.2708 11.7916 14.1172C12.6215 14.9466 13.4853 15.7422 14.3829 16.5039C15.2974 17.2487 15.9071 17.7057 16.212 17.875L18.7778 15.9707C18.7778 15.9707 19.0488 16.0892 19.5908 16.3262C20.1327 16.5632 20.7678 16.8424 21.4961 17.1641C22.2243 17.4688 22.9526 17.7904 23.6809 18.1289C24.4091 18.4674 24.9595 18.7298 25.3321 18.916C25.3321 18.916 25.3999 18.9753 25.5354 19.0938C25.6709 19.2122 25.7894 19.4238 25.891 19.7285C25.9757 20.0332 26.018 20.2533 26.018 20.3887C26.018 20.5072 26.018 20.5664 26.018 20.5664C25.7132 21.8698 25.0781 22.8854 24.1127 23.6133C23.1643 24.3411 22.1227 24.959 20.988 25.4668C20.988 25.4668 20.8779 25.5091 20.6577 25.5938C20.4376 25.6784 20.1497 25.763 19.794 25.8477C19.4214 25.9492 19.1335 26 18.9303 26C18.727 26 18.6254 26 18.6254 26Z" fill="#F2F2F2"/>
</svg>
